<svg fill="#ffffff" height="45px" width="50px" version="1.1" id="Layer_1" xmlns="http://www.w3.org/2000/svg" xmlns:xlink="http://www.w3.org/1999/xlink" viewBox="0 0 512 512" xml:space="preserve"><g id="SVGRepo_bgCarrier" stroke-width="0"></g><g id="SVGRepo_tracerCarrier" stroke-linecap="round" stroke-linejoin="round"></g><g id="SVGRepo_iconCarrier"> <g> <g> <path d="M365.939,432.835H341.85l-36.048-36.048c31.324-11.365,53.764-41.418,53.764-76.617v-54.865 c0-77.172-91.039-118.347-149.045-68.431L5.702,372.914c-11.482,9.872-4.449,28.732,10.65,28.732h157.377l59.081,59.082 c3.064,3.064,7.22,4.787,11.555,4.787h30.856c9.024,0,16.34-7.316,16.34-16.34s-7.316-16.34-16.34-16.34h-24.088l-31.189-31.189 h44.5l59.082,59.082c3.064,3.064,7.22,4.787,11.553,4.787h30.856c9.024,0,16.34-7.316,16.34-16.34 S374.963,432.835,365.939,432.835z"></path> </g> </g> <g> <g> <path d="M437.448,116.861h-7.36c-17.165-97.296-175.22-98.459-175.22,26.417c73.614-8.724,137.379,48.798,137.379,122.024v54.865 c0,31.666-12.964,60.359-33.859,81.06c41.057-4.157,73.208-38.923,73.208-81.06V207.753h64.064c9.024,0,16.34-7.316,16.34-16.34 C512,150.305,478.555,116.861,437.448,116.861z M364.833,149.32c-11.938,0-21.616-9.678-21.616-21.616 c0-11.938,9.678-21.616,21.616-21.616s21.616,9.678,21.616,21.616C386.449,139.643,376.771,149.32,364.833,149.32z"></path> </g> </g> </g></svg>